<svg width="18" height="21" viewBox="0 0 18 21" fill="none" xmlns="http://www.w3.org/2000/svg">
<path d="M7.9695 0.892985C8.248 0.62968 8.61673 0.482971 9 0.482971C9.38327 0.482971 9.752 0.62968 10.0305 0.892985L17.2965 7.76148C17.7465 8.18598 18 8.77848 18 9.39648V17.7515C18 18.3482 17.7629 18.9205 17.341 19.3425C16.919 19.7644 16.3467 20.0015 15.75 20.0015H12.75C12.4544 20.0015 12.1617 19.9432 11.8886 19.8301C11.6155 19.7169 11.3674 19.551 11.1585 19.3419C10.9495 19.1329 10.7838 18.8846 10.6708 18.6115C10.5579 18.3383 10.4998 18.0456 10.5 17.75V14C10.5 13.8011 10.421 13.6103 10.2803 13.4697C10.1397 13.329 9.94891 13.25 9.75 13.25H8.25C8.05109 13.25 7.86032 13.329 7.71967 13.4697C7.57902 13.6103 7.5 13.8011 7.5 14V17.75C7.5 18.3467 7.26295 18.919 6.84099 19.341C6.41903 19.7629 5.84674 20 5.25 20H2.25C1.65326 20 1.08097 19.7629 0.65901 19.341C0.237053 18.919 0 18.3467 0 17.75V9.39498C0 8.77698 0.255 8.18448 0.705 7.75998L7.9695 0.889985V0.892985ZM9 1.98198L1.734 8.85198C1.66024 8.92191 1.60146 9.00611 1.56123 9.09945C1.52101 9.19279 1.50017 9.29334 1.5 9.39498V17.75C1.5 17.9489 1.57902 18.1397 1.71967 18.2803C1.86032 18.421 2.05109 18.5 2.25 18.5H5.25C5.44891 18.5 5.63968 18.421 5.78033 18.2803C5.92098 18.1397 6 17.9489 6 17.75V14C6 13.4032 6.23705 12.8309 6.65901 12.409C7.08097 11.987 7.65326 11.75 8.25 11.75H9.75C10.3467 11.75 10.919 11.987 11.341 12.409C11.7629 12.8309 12 13.4032 12 14V17.75C12 17.9489 12.079 18.1397 12.2197 18.2803C12.3603 18.421 12.5511 18.5 12.75 18.5H15.75C15.9489 18.5 16.1397 18.421 16.2803 18.2803C16.421 18.1397 16.5 17.9489 16.5 17.75V9.39498C16.5 9.29309 16.4793 9.19226 16.4391 9.09864C16.3988 9.00502 16.3399 8.92059 16.266 8.85048L9 1.98198Z" fill="white"/>
</svg>
